<?xml version="1.0" standalone="no"?>
<!DOCTYPE svg PUBLIC "-//W3C//DTD SVG 20010904//EN"
 "http://www.w3.org/TR/2001/REC-SVG-20010904/DTD/svg10.dtd">
<svg version="1.0" xmlns="http://www.w3.org/2000/svg"
 width="400.000000pt" height="400.000000pt" viewBox="0 0 400.000000 400.000000"
 preserveAspectRatio="xMidYMid meet">
<metadata>
Created by potrace 1.11, written by Peter Selinger 2001-2013
</metadata>
<g transform="translate(0.000000,400.000000) scale(0.100000,-0.100000)"
fill="#000000" stroke="none">
<path d="M702 2708 c3 -824 4 -845 25 -918 76 -271 199 -467 448 -715 195
-194 389 -342 683 -521 l136 -82 46 26 c95 55 327 205 414 269 468 341 751
715 815 1077 7 39 11 352 11 883 l0 823 -1290 0 -1291 0 3 -842z m510 795 c0
-10 1 -24 1 -30 -1 -7 3 -10 8 -7 5 3 16 -1 24 -8 40 -36 43 -38 48 -24 7 17
-1 26 -20 26 -19 0 -39 21 -38 40 0 12 19 15 102 17 57 1 105 -2 108 -6 2 -5
-9 -23 -24 -40 -20 -22 -31 -28 -34 -19 -4 9 -6 7 -6 -4 -1 -13 6 -17 22 -15
25 2 47 18 40 29 -10 17 47 58 80 58 42 0 52 -9 29 -26 -15 -11 -14 -13 12
-20 26 -6 27 -8 12 -19 -15 -12 -15 -13 1 -19 15 -6 15 -8 3 -16 -12 -8 -12
-10 3 -16 22 -8 22 -24 0 -24 -12 -1 -9 -6 12 -17 25 -14 27 -18 12 -21 -12
-2 -16 -9 -13 -19 5 -12 1 -14 -14 -10 -23 6 -26 -3 -7 -22 10 -11 10 -14 0
-18 -7 -3 -13 -12 -13 -20 0 -13 -2 -13 -16 -2 -15 12 -16 10 -9 -20 7 -31 6
-32 -14 -21 -20 10 -21 9 -15 -14 7 -28 -4 -34 -24 -14 -9 9 -12 7 -12 -12 0
-22 -1 -22 -19 -6 -17 16 -19 16 -24 -5 -5 -18 -9 -20 -20 -11 -10 9 -16 9
-25 0 -8 -8 -15 -8 -25 0 -10 9 -17 8 -26 -1 -9 -9 -14 -9 -21 2 -7 12 -11 12
-24 2 -13 -11 -17 -11 -22 2 -3 9 -12 13 -19 11 -7 -3 -16 -1 -19 5 -4 6 -13
8 -21 4 -8 -3 -15 0 -15 7 0 7 -7 10 -15 6 -10 -4 -15 1 -15 14 0 23 -10 26
-28 8 -17 -17 -25 -3 -12 21 10 20 9 21 -16 15 l-26 -7 17 27 c17 26 17 26 -6
26 -24 0 -23 1 6 26 l30 25 -27 -4 c-31 -5 -36 4 -13 23 11 9 13 16 5 24 -7 7
-3 14 12 23 19 10 20 12 6 13 -22 0 -24 20 -2 20 10 0 14 6 10 15 -3 8 2 18
11 23 11 6 12 11 4 16 -24 15 -9 26 34 26 36 0 45 -4 47 -17z m988 -223 l0
-240 -100 0 -100 0 0 240 0 240 100 0 100 0 0 -240z m420 0 l0 -240 -100 0
-100 0 0 240 0 240 100 0 100 0 0 -240z m420 0 l0 -240 -100 0 -100 0 0 240 0
240 100 0 100 0 0 -240z m-640 0 l0 -230 -90 0 -90 0 0 230 0 230 90 0 90 0 0
-230z m420 0 l0 -230 -87 0 -88 0 0 230 0 230 88 0 87 0 0 -230z m430 0 l0
-230 -95 0 -95 0 0 230 0 230 95 0 95 0 0 -230z m-1536 -242 c-75 -69 -109
-94 -166 -124 -27 -13 -48 -26 -48 -28 0 -2 37 10 82 26 66 23 95 28 152 26
63 -3 69 -4 49 -16 -12 -7 -59 -14 -104 -17 -45 -2 -85 -8 -88 -13 -3 -5 -24
-14 -46 -20 l-40 -10 58 -1 c69 -1 119 -22 147 -61 21 -30 38 -90 25 -90 -5 0
-34 24 -65 54 -73 69 -121 86 -183 62 -55 -21 -66 -20 -60 4 8 29 218 213 281
246 61 32 64 14 6 -38z m-468 5 c4 -16 7 -30 7 -33 -1 -3 10 -13 23 -23 l24
-18 -6 29 c-4 18 -1 32 9 40 19 17 44 -33 26 -54 -6 -8 -7 -14 -3 -14 5 0 15
9 22 20 7 11 19 20 27 20 8 0 14 3 13 8 -3 13 13 52 22 52 5 0 5 -13 0 -29 -4
-16 -6 -32 -2 -35 9 -10 -20 -56 -32 -49 -6 4 0 -6 14 -23 l25 -30 11 25 c13
29 81 98 89 90 12 -12 -19 -83 -55 -124 -21 -24 -41 -54 -45 -65 -3 -11 -13
-20 -21 -20 -16 0 -18 28 -4 64 7 21 6 26 -5 26 -8 0 -17 -12 -21 -27 -3 -16
-9 -37 -14 -48 -8 -19 -9 -19 -9 2 -1 15 -6 21 -15 17 -8 -3 -12 -12 -9 -20
10 -26 -19 -14 -53 21 -18 19 -39 35 -46 35 -25 0 -201 69 -217 84 -13 14 -13
16 0 16 31 0 131 -31 180 -56 53 -26 77 -25 43 2 -10 8 -42 30 -69 48 -58 38
-81 63 -71 74 13 12 120 -53 142 -86 12 -17 24 -28 28 -25 3 4 -1 14 -10 24
-15 17 -27 109 -13 109 4 0 10 -12 15 -27z m2009 -398 l0 -380 -625 0 -625 0
-3 370 c-1 203 0 376 3 383 3 10 133 12 627 10 l623 -3 0 -380z m-1570 231
c18 -8 51 -33 73 -55 22 -22 50 -43 63 -45 14 -2 23 -9 21 -17 -2 -8 0 -11 3
-7 4 4 17 2 28 -3 16 -9 17 -13 6 -20 -8 -5 -17 -3 -22 4 -6 8 -7 4 -4 -10 3
-15 0 -23 -8 -23 -8 0 -21 10 -31 23 l-16 22 5 -25 c6 -24 6 -25 -10 -5 l-16
20 7 -20 c12 -34 12 -40 -4 -40 -12 0 -15 14 -15 64 -1 60 -3 65 -35 93 -19
16 -55 35 -80 43 -28 8 -37 14 -22 14 12 1 38 -5 57 -13z m-575 -6 c-25 -5
-56 -13 -70 -18 -27 -11 -101 -67 -101 -76 6 -58 -1 -89 -26 -112 -14 -13 -27
-23 -29 -21 -2 1 4 22 12 46 8 24 12 46 10 49 -3 3 -8 -1 -10 -9 -21 -57 -27
-69 -36 -69 -5 0 -10 7 -10 15 0 25 28 85 40 85 6 0 33 21 60 46 55 51 105 73
165 72 l40 0 -45 -8z m144 -39 c25 -25 3 -29 -28 -6 -11 8 -36 15 -55 15 -30
0 -43 -8 -88 -57 -29 -31 -56 -54 -59 -50 -4 4 -1 24 7 44 28 75 168 109 223
54z m-19 -36 c28 -27 30 -37 15 -66 -14 -26 -50 -25 -50 1 0 11 7 20 15 20 18
0 20 21 3 38 -19 19 -47 14 -73 -13 -34 -33 -31 -61 11 -103 21 -21 31 -38 24
-42 -7 -4 -5 -17 6 -39 18 -37 13 -84 -13 -113 -19 -21 -49 -24 -56 -5 -8 20
6 36 28 34 35 -3 31 52 -9 129 -46 85 -47 123 -5 158 38 33 73 33 104 1z m346
-4 c16 -16 29 -40 29 -53 0 -13 -18 -59 -41 -104 -32 -61 -40 -88 -35 -107 5
-20 12 -26 29 -24 30 3 31 -37 0 -41 -46 -7 -69 78 -38 138 10 19 11 30 4 32
-6 2 5 20 25 40 42 42 45 70 11 103 -28 29 -57 32 -79 9 -21 -21 -20 -31 4
-37 24 -6 26 -25 5 -33 -21 -8 -45 14 -45 41 0 29 44 65 77 65 14 0 37 -13 54
-29z m-151 -31 c0 -18 -7 -20 -74 -20 -41 0 -78 5 -81 10 -13 22 9 30 81 30
67 0 74 -2 74 -20z m-16 -67 c-5 -32 -1 -45 24 -79 91 -125 95 -198 15 -288
-32 -35 -34 -36 -108 -36 -56 0 -75 3 -75 13 0 8 -9 22 -21 33 -33 30 -49 69
-49 119 0 51 6 66 57 142 29 43 35 58 31 92 l-4 41 68 0 68 0 -6 -37z m574
-793 c1 -190 0 -350 -2 -357 -5 -13 -14 -8 -414 219 l-193 110 -77 -41 c-42
-22 -165 -87 -272 -144 -220 -118 -204 -116 -241 -18 -43 113 -59 225 -59 409
l0 172 628 -2 627 -3 3 -345z m1262 181 c0 -98 -6 -188 -14 -233 -34 -172
-120 -358 -244 -525 -86 -116 -308 -335 -452 -447 -138 -107 -500 -346 -524
-346 0 0 -1 385 -1 855 l0 855 618 0 617 0 0 -159z m-1752 -587 c64 -37 189
-107 277 -157 88 -50 172 -99 188 -109 l27 -19 0 -350 c0 -192 -3 -349 -7
-349 -12 0 -141 79 -274 166 -300 199 -525 395 -703 617 -21 26 -37 49 -35 51
5 5 403 216 407 216 2 0 56 -30 120 -66z"/>
<path d="M1438 3318 c3 -49 0 -64 -13 -74 -11 -8 -13 -14 -5 -19 7 -4 16 -3
20 1 12 12 16 147 4 151 -5 2 -7 -24 -6 -59z"/>
<path d="M1227 3363 c-4 -3 -7 -35 -7 -69 0 -61 1 -64 30 -79 18 -9 40 -13 52
-9 12 3 24 1 28 -7 6 -9 12 -9 24 4 24 24 20 29 -26 27 -78 -3 -83 2 -80 75 3
59 -3 77 -21 58z"/>
<path d="M1386 3221 c-3 -5 3 -11 15 -14 16 -4 18 -3 8 9 -13 16 -16 17 -23 5z"/>
<path d="M1286 2904 c-9 -25 -2 -26 17 -4 13 16 14 20 3 20 -8 0 -17 -7 -20
-16z"/>
<path d="M1335 2910 c3 -5 11 -10 16 -10 6 0 7 5 4 10 -3 6 -11 10 -16 10 -6
0 -7 -4 -4 -10z"/>
<path d="M1255 2870 c3 -5 8 -10 11 -10 2 0 4 5 4 10 0 6 -5 10 -11 10 -5 0
-7 -4 -4 -10z"/>
<path d="M1284 2589 c-4 -7 -3 -9 4 -5 5 3 13 0 15 -6 4 -9 6 -10 6 -1 1 17
-16 25 -25 12z"/>
<path d="M1265 2550 c-3 -5 1 -10 10 -10 9 0 13 5 10 10 -3 6 -8 10 -10 10 -2
0 -7 -4 -10 -10z"/>
<path d="M1318 2548 c11 -14 10 -18 -5 -27 -10 -6 -13 -10 -8 -10 6 0 24 11
40 24 17 14 25 25 18 25 -6 0 -15 -5 -18 -10 -5 -8 -12 -7 -23 2 -15 11 -15
11 -4 -4z"/>
<path d="M1415 2551 c-3 -6 -3 -11 1 -11 4 0 -1 -9 -11 -20 -10 -11 -14 -20
-8 -20 12 0 39 48 31 56 -3 3 -9 1 -13 -5z"/>
<path d="M1250 2520 c0 -5 5 -10 11 -10 5 0 7 5 4 10 -3 6 -8 10 -11 10 -2 0
-4 -4 -4 -10z"/>
<path d="M1440 2521 c0 -5 7 -15 17 -22 15 -13 15 -12 4 9 -12 23 -21 28 -21
13z"/>
<path d="M1442 2472 c15 -19 24 -24 26 -15 2 7 8 13 13 13 5 0 9 5 9 11 0 8
-5 7 -16 -2 -14 -11 -18 -11 -29 4 -7 9 -15 17 -19 17 -4 0 3 -13 16 -28z"/>
<path d="M1350 2475 c-7 -8 -20 -15 -28 -15 -13 0 -14 -2 -3 -12 10 -11 14
-10 22 5 12 21 33 23 25 2 -3 -8 -1 -15 4 -15 12 0 13 20 1 38 -6 10 -10 10
-21 -3z"/>
<path d="M1236 2471 c-3 -4 6 -6 19 -3 14 2 25 6 25 8 0 8 -39 4 -44 -5z"/>
<path d="M1394 2431 c0 -11 5 -17 13 -14 10 4 11 9 2 19 -15 18 -15 18 -15 -5z"/>
<path d="M1253 2394 c-10 -22 -9 -24 15 -23 18 1 21 3 9 6 -14 4 -15 8 -7 18
6 7 7 15 3 18 -5 3 -13 -6 -20 -19z"/>
<path d="M1204 2196 c-3 -8 -16 -18 -27 -22 -12 -3 -29 -12 -37 -18 -8 -7 -35
-18 -60 -25 -25 -7 -52 -16 -60 -21 -8 -4 -26 -3 -39 1 -13 5 -30 5 -39 -1
-16 -9 -16 -9 1 -10 9 0 17 -5 17 -11 0 -8 -14 -10 -39 -6 -32 4 -43 1 -61
-18 -32 -34 -23 -60 20 -62 19 0 42 -3 50 -5 8 -1 19 7 25 20 13 29 31 22 28
-13 -2 -22 1 -26 17 -22 11 3 21 -1 24 -9 8 -20 -66 -19 -105 1 -22 12 -34 13
-49 5 -12 -6 -30 -8 -41 -5 -25 8 -70 -20 -63 -39 8 -20 59 -39 84 -31 13 4
31 0 46 -10 22 -14 35 -15 87 -6 38 6 91 7 135 3 39 -5 72 -5 72 0 0 4 13 8
30 8 21 0 28 4 24 14 -3 9 3 17 15 21 12 3 22 9 22 13 14 74 16 102 7 102 -6
0 -8 7 -4 15 3 8 1 15 -4 15 -6 0 -8 16 -4 40 7 44 -4 52 -24 19 -17 -27 -27
-16 -24 26 4 35 -14 57 -24 31z m-27 -55 c2 -22 -20 -35 -57 -36 -30 0 -38
-16 -15 -30 11 -7 18 -6 25 5 8 12 10 11 10 -7 0 -28 16 -30 25 -3 3 11 18 23
33 26 15 3 34 8 42 10 8 2 2 -7 -14 -20 -16 -13 -26 -28 -22 -34 3 -5 -1 -15
-9 -22 -19 -16 -2 -40 26 -40 11 0 19 -7 19 -15 0 -14 -4 -14 -31 0 -38 20
-49 12 -23 -17 10 -12 14 -18 7 -15 -16 10 -43 -2 -43 -19 0 -8 -2 -14 -4 -14
-10 0 -76 68 -76 79 0 7 -8 11 -17 10 -25 -3 -53 11 -53 27 0 7 -9 19 -20 27
-18 12 -18 16 -6 26 8 7 20 10 25 7 5 -4 12 -2 16 4 3 5 19 10 35 10 16 0 32
5 35 11 4 6 19 7 36 4 24 -6 29 -3 29 13 0 11 6 23 13 25 6 3 12 6 12 6 1 1 1
-8 2 -18z m-277 -83 c0 -7 -5 -20 -10 -28 -8 -12 -10 -9 -10 13 0 15 5 27 10
27 6 0 10 -6 10 -12z m30 -119 c0 -5 -4 -9 -10 -9 -5 0 -10 7 -10 16 0 8 5 12
10 9 6 -3 10 -10 10 -16z m134 -5 c3 -8 2 -12 -4 -9 -6 3 -10 10 -10 16 0 14
7 11 14 -7z m-76 -1 c-10 -2 -18 -9 -18 -14 0 -6 -5 -7 -10 -4 -16 10 -1 25
23 24 17 -1 18 -2 5 -6z"/>
<path d="M1022 2068 c-13 -13 -16 -37 -4 -39 4 -1 17 -3 28 -4 12 -1 25 -5 31
-8 5 -3 15 -2 23 3 11 7 12 14 2 34 -13 28 -58 36 -80 14z m63 -18 c-3 -5 -10
-10 -16 -10 -5 0 -9 5 -9 10 0 6 7 10 16 10 8 0 12 -4 9 -10z"/>
<path d="M1830 2183 c-19 -12 -40 -27 -46 -32 -19 -15 -142 -42 -167 -36 -14
4 -28 2 -31 -4 -4 -6 -2 -11 3 -11 6 0 11 -5 11 -11 0 -8 -13 -9 -38 -5 -33 5
-42 2 -61 -20 -32 -37 -24 -59 23 -61 21 0 42 -6 46 -13 5 -8 12 -5 23 11 9
12 14 26 11 31 -3 4 2 8 12 8 12 0 15 -7 12 -30 -4 -26 -1 -30 19 -30 13 0 23
-5 23 -11 0 -14 -99 -6 -109 8 -3 6 -15 8 -26 6 -11 -3 -39 -6 -62 -7 -47 -2
-69 -16 -60 -40 9 -23 57 -39 82 -28 14 7 27 4 46 -10 23 -17 32 -18 85 -9 36
6 87 8 132 3 39 -5 72 -5 72 0 0 4 14 8 31 8 24 0 30 4 25 15 -3 9 0 15 8 15
7 0 19 7 26 15 15 18 22 105 9 105 -5 0 -5 7 -2 17 4 11 3 14 -5 9 -8 -5 -9 8
-5 46 l6 53 -24 -30 -24 -30 -5 46 -5 45 -35 -23z m-13 -43 c2 -20 -8 -26 -20
-13 -4 3 -2 12 4 20 15 17 14 17 16 -7z m-43 -26 c9 -3 16 -10 16 -15 0 -6 -9
-5 -21 1 -11 7 -27 9 -36 6 -22 -9 5 -39 29 -33 11 3 18 0 18 -9 0 -8 6 -11
15 -8 8 4 15 12 15 20 0 7 12 16 28 20 15 3 34 8 42 10 8 2 2 -7 -15 -21 -16
-13 -26 -27 -22 -31 4 -4 2 -13 -4 -20 -17 -20 -3 -44 25 -44 18 0 24 -4 20
-15 -5 -13 -9 -13 -34 0 -36 19 -49 3 -18 -21 15 -11 17 -14 6 -11 -24 8 -48
-2 -48 -19 0 -8 -4 -14 -10 -14 -5 0 -10 6 -10 13 0 8 -11 19 -24 27 -13 7
-27 21 -29 32 -4 13 -12 18 -24 16 -17 -4 -53 26 -53 43 0 4 -9 11 -20 14 -16
5 -18 9 -7 19 7 7 19 13 27 14 40 4 81 15 86 23 6 10 26 12 48 3z m-231 -57
c3 -8 1 -20 -4 -28 -5 -9 -9 -9 -9 -2 0 6 -3 18 -6 27 -3 9 -2 16 4 16 5 0 12
-6 15 -13z m166 -127 c0 -10 -3 -8 -9 5 -12 27 -12 43 0 25 5 -8 9 -22 9 -30z
m-129 8 c0 -13 -23 -5 -28 10 -2 7 2 10 12 6 9 -3 16 -11 16 -16z m50 -5 c-8
-3 -18 -11 -22 -17 -5 -7 -8 -4 -8 7 0 11 7 17 23 16 15 0 17 -2 7 -6z"/>
<path d="M1664 2065 c-9 -23 3 -44 25 -44 12 -1 31 -1 42 -2 30 0 33 6 14 35
-20 30 -72 37 -81 11z m60 -20 c-4 -8 -10 -12 -15 -9 -14 8 -10 24 6 24 9 0
12 -6 9 -15z"/>
<path d="M2267 2146 c-4 -9 -3 -38 0 -66 5 -46 4 -52 -16 -57 -18 -5 -21 -12
-21 -65 0 -50 4 -62 25 -81 l25 -22 -21 -165 -21 -165 -39 -37 -39 -36 0 -126
0 -126 295 0 295 0 0 123 0 123 -39 38 c-32 31 -40 47 -45 89 -3 29 -13 103
-22 165 l-16 114 26 27 c22 23 26 36 26 84 0 50 -2 57 -20 57 -21 0 -24 11
-20 98 l2 42 -56 0 -56 0 0 -70 c0 -40 -4 -70 -10 -70 -11 0 -14 22 -10 93 l2
47 -56 0 -56 0 0 -70 c0 -90 -18 -92 -22 -2 l-3 67 -51 3 c-39 2 -53 -1 -57
-12z m54 -15 c5 8 9 9 9 2 0 -6 8 -14 18 -16 9 -3 -2 -5 -25 -6 -34 -1 -43 3
-43 15 0 14 3 14 16 3 13 -10 17 -10 25 2z m130 0 c7 11 9 11 9 0 0 -9 7 -11
21 -8 14 4 18 2 12 -4 -5 -5 -8 -30 -6 -54 l4 -45 -41 0 c-38 0 -41 2 -34 23
9 27 9 34 -1 72 -8 28 -7 29 9 16 15 -13 19 -13 27 0z m115 -11 c8 0 14 6 14
13 0 8 4 7 10 -3 8 -12 12 -12 18 -3 5 7 8 -13 8 -47 l1 -60 -36 0 -36 0 0 61
c-1 34 1 56 3 50 2 -6 10 -11 18 -11z m-208 -60 l2 -40 -39 0 c-38 0 -39 1
-32 28 4 15 6 33 4 40 -3 8 7 12 30 12 32 0 34 -1 35 -40z m253 -72 c0 -10 2
-10 6 0 2 6 13 12 24 12 27 0 26 -68 -1 -103 -20 -25 -21 -25 -184 -26 l-164
-2 -21 27 c-13 17 -21 41 -21 65 l0 39 180 0 c137 0 180 -3 181 -12z m-260
-155 l2 -28 4 26 4 26 120 0 c114 1 119 0 124 -21 5 -26 13 -74 21 -143 l7
-53 -67 0 -66 0 0 63 c0 40 -5 70 -16 85 -36 51 -74 8 -74 -85 0 -56 -2 -63
-20 -63 -14 0 -20 7 -21 23 l-2 22 -4 -22 c-4 -20 -11 -23 -50 -23 -35 0 -44
3 -40 14 3 8 11 52 17 98 14 104 15 108 40 108 15 0 20 -7 21 -27z m293 -240
c3 -21 6 -49 6 -62 0 -13 8 -30 18 -37 14 -11 -19 -13 -211 -14 -150 0 -226 3
-222 10 3 6 23 11 43 11 36 1 36 2 8 8 -17 3 -30 8 -29 11 0 3 4 29 8 58 l7
52 183 0 182 0 7 -37z m64 -140 c3 -10 -53 -13 -258 -13 -234 0 -261 2 -250
15 11 13 49 15 258 13 185 -2 246 -6 250 -15z m21 -128 l-2 -105 -99 0 -98 0
1 77 c1 68 -1 79 -21 95 -42 34 -148 11 -133 -29 3 -8 0 -19 -8 -24 -8 -5 -9
-9 -3 -9 7 0 12 -21 12 -55 l0 -55 -99 0 -98 0 0 105 0 105 274 0 275 0 -1
-105z"/>
<path d="M2308 1983 c12 -2 30 -2 40 0 9 3 -1 5 -23 4 -22 0 -30 -2 -17 -4z"/>
<path d="M2385 1910 c3 -5 8 -10 11 -10 2 0 4 5 4 10 0 6 -5 10 -11 10 -5 0
-7 -4 -4 -10z"/>
<path d="M2580 1909 c0 -5 5 -7 10 -4 6 3 10 8 10 11 0 2 -4 4 -10 4 -5 0 -10
-5 -10 -11z"/>
<path d="M2292 1570 c0 -14 2 -19 5 -12 2 6 2 18 0 25 -3 6 -5 1 -5 -13z"/>
<path d="M2352 1570 c0 -14 2 -19 5 -12 2 6 2 18 0 25 -3 6 -5 1 -5 -13z"/>
<path d="M2552 1570 c0 -14 2 -19 5 -12 2 6 2 18 0 25 -3 6 -5 1 -5 -13z"/>
<path d="M2396 1508 c2 -4 29 -7 59 -7 30 0 57 3 59 7 2 4 -24 7 -59 7 -35 0
-61 -3 -59 -7z"/>
<path d="M2348 1503 c6 -2 18 -2 25 0 6 3 1 5 -13 5 -14 0 -19 -2 -12 -5z"/>
<path d="M2538 1503 c6 -2 18 -2 25 0 6 3 1 5 -13 5 -14 0 -19 -2 -12 -5z"/>
<path d="M2608 1503 c6 -2 18 -2 25 0 6 3 1 5 -13 5 -14 0 -19 -2 -12 -5z"/>
<path d="M2272 1360 c0 -14 2 -19 5 -12 2 6 2 18 0 25 -3 6 -5 1 -5 -13z"/>
<path d="M2342 1360 c0 -14 2 -19 5 -12 2 6 2 18 0 25 -3 6 -5 1 -5 -13z"/>
<path d="M2228 1333 c7 -3 16 -2 19 1 4 3 -2 6 -13 5 -11 0 -14 -3 -6 -6z"/>
<path d="M2308 1333 c7 -3 16 -2 19 1 4 3 -2 6 -13 5 -11 0 -14 -3 -6 -6z"/>
<path d="M2658 1333 c7 -3 16 -2 19 1 4 3 -2 6 -13 5 -11 0 -14 -3 -6 -6z"/>
<path d="M2272 1275 c0 -16 2 -22 5 -12 2 9 2 23 0 30 -3 6 -5 -1 -5 -18z"/>
<path d="M2202 1270 c0 -14 2 -19 5 -12 2 6 2 18 0 25 -3 6 -5 1 -5 -13z"/>
<path d="M2342 1270 c0 -14 2 -19 5 -12 2 6 2 18 0 25 -3 6 -5 1 -5 -13z"/>
<path d="M1720 1305 c-7 -8 -18 -15 -24 -15 -7 0 -21 -8 -32 -18 -11 -11 -31
-22 -44 -25 -14 -3 -44 -10 -68 -16 -23 -6 -54 -8 -68 -5 -24 6 -26 5 -19 -16
7 -22 5 -22 -30 -16 -34 7 -41 4 -62 -20 -12 -15 -23 -30 -23 -34 0 -17 29
-29 58 -25 17 2 34 -1 38 -6 9 -15 34 10 34 34 0 20 1 20 16 5 13 -13 14 -20
4 -38 -11 -21 -11 -22 14 -16 19 5 26 3 26 -9 0 -20 -40 -20 -88 0 -23 10 -46
13 -62 9 -14 -4 -40 -8 -59 -8 -21 -1 -38 -8 -45 -19 -17 -27 18 -49 69 -45
29 3 46 -1 59 -14 22 -20 47 -23 63 -7 5 5 39 10 74 9 35 -1 80 -1 99 -1 19 0
40 -5 47 -11 9 -7 13 -7 13 1 0 6 11 11 25 11 14 0 25 4 25 10 0 5 10 20 23
32 16 17 24 37 25 66 1 23 -2 42 -8 42 -5 0 -7 7 -4 15 4 8 2 15 -3 15 -4 0
-6 21 -4 47 l3 47 -25 -30 -26 -29 6 41 c6 45 -7 63 -27 39z m-28 -60 c0 -5
-5 -11 -11 -13 -6 -2 -11 4 -11 13 0 9 5 15 11 13 6 -2 11 -8 11 -13z m-51
-15 c10 -6 19 -16 19 -22 0 -9 -3 -9 -12 0 -17 17 -48 15 -48 -3 0 -10 -10
-15 -30 -15 -18 0 -33 -6 -36 -15 -8 -19 15 -48 31 -41 7 2 17 0 22 -5 5 -5
16 -4 27 4 15 11 16 18 8 33 -9 16 -7 20 9 20 10 0 19 -4 19 -8 0 -17 28 -7
33 12 3 12 14 20 27 20 12 0 31 5 43 11 17 8 15 4 -7 -17 -17 -14 -31 -34 -32
-43 -1 -9 -5 -24 -9 -33 -6 -16 -1 -18 36 -18 42 0 43 -1 21 -15 -17 -13 -26
-13 -43 -5 -29 16 -36 4 -13 -22 12 -15 13 -18 3 -10 -21 16 -49 5 -49 -19 0
-10 -4 -19 -10 -19 -5 0 -9 4 -7 9 3 12 -69 81 -84 81 -19 0 -79 69 -73 85 3
7 14 11 25 8 10 -3 25 0 33 6 7 6 20 9 28 6 8 -3 21 1 28 10 15 18 16 18 41 5z
m-223 -72 c-4 -30 -23 -33 -24 -3 -1 16 3 25 13 25 9 0 13 -8 11 -22z m174 0
c-6 -6 -15 -8 -19 -4 -4 4 -1 11 7 16 19 12 27 3 12 -12z m175 -24 c-3 -3 -12
-4 -19 -1 -8 3 -5 6 6 6 11 1 17 -2 13 -5z m-319 -83 c3 -8 -1 -12 -9 -9 -7 2
-15 10 -17 17 -3 8 1 12 9 9 7 -2 15 -10 17 -17z m129 -13 c-3 -8 -6 -5 -6 6
-1 11 2 17 5 13 3 -3 4 -12 1 -19z"/>
</g>
</svg>
